<svg width="208" height="40" viewBox="0 0 208 40" fill="none" xmlns="http://www.w3.org/2000/svg">
<rect y="0.5" width="25" height="25" rx="4.51807" fill="#0E99FE"/>
<path d="M16.2504 20.9206C15.6287 20.9206 15.0938 20.7398 14.6456 20.3784C14.1974 20.0169 13.8721 19.4025 13.6697 18.535L12.8022 14.9784C12.6287 15.629 12.4263 16.2651 12.195 16.8868C11.9636 17.4941 11.7396 18.0362 11.5227 18.5133C11.1612 19.3663 10.7636 19.9808 10.3299 20.3567C9.91064 20.7326 9.4263 20.9206 8.8769 20.9206C8.25521 20.9206 7.7275 20.7109 7.29377 20.2916C6.87449 19.8724 6.56365 19.2868 6.36124 18.535L3.49859 7.64827C3.26726 6.91092 3.30341 6.33984 3.60702 5.93502C3.92509 5.5302 4.34437 5.32779 4.86485 5.32779C5.34196 5.32779 5.71064 5.48683 5.97088 5.8049C6.24558 6.12297 6.4769 6.66514 6.66485 7.43141L9.18052 17.7109L10.6769 12.9832C10.9661 12.0868 11.1468 11.3784 11.2191 10.8579C11.3058 10.323 11.3492 9.91092 11.3492 9.62177C11.3492 9.15912 11.2986 8.76876 11.1974 8.45068C11.1106 8.13261 11.0311 7.83623 10.9588 7.56153C10.7853 6.80972 10.8359 6.28924 11.1106 6.00008C11.3998 5.71092 11.7685 5.56635 12.2167 5.56635C12.6793 5.56635 13.0552 5.71092 13.3444 6.00008C13.648 6.27478 13.8721 6.75189 14.0167 7.43141L16.3805 17.6892C17.0745 15.6651 17.5661 14.0314 17.8552 12.788C18.1588 11.5447 18.3106 10.5977 18.3106 9.94707C18.3106 9.28201 18.2817 8.76876 18.2239 8.40731C18.1661 8.04586 18.101 7.74948 18.0287 7.51815C17.9709 7.27237 17.942 7.02659 17.942 6.7808C17.942 6.41936 18.0721 6.08683 18.3323 5.78321C18.607 5.4796 19.0552 5.32779 19.6769 5.32779C20.154 5.32779 20.5227 5.50129 20.7829 5.84827C21.0432 6.19526 21.2167 6.62177 21.3034 7.12779C21.4046 7.63382 21.4552 8.12538 21.4552 8.60249C21.4552 9.28201 21.3757 10.0627 21.2167 10.9447C21.0576 11.8266 20.848 12.7374 20.5877 13.6772C20.342 14.6025 20.0673 15.4916 19.7636 16.3447C19.46 17.1977 19.1564 17.935 18.8528 18.5567C18.448 19.4097 18.0432 20.0169 17.6383 20.3784C17.2335 20.7398 16.7709 20.9206 16.2504 20.9206Z" fill="white"/>
<path d="M34.6367 18.793L38.0352 4.4375H39.9336L40.3672 6.82812L36.7461 21.5H34.707L34.6367 18.793ZM32.8906 4.4375L35.7031 18.793L35.4688 21.5H33.1953L29.4102 4.4375H32.8906ZM43.3555 18.7344L46.1328 4.4375H49.6133L45.8398 21.5H43.5664L43.3555 18.7344ZM41 4.4375L44.4219 18.8516L44.3281 21.5H42.2891L38.6445 6.81641L39.1133 4.4375H41ZM50.3984 15.2891V15.043C50.3984 14.1133 50.5312 13.2578 50.7969 12.4766C51.0625 11.6875 51.4492 11.0039 51.957 10.4258C52.4648 9.84766 53.0898 9.39844 53.832 9.07812C54.5742 8.75 55.4258 8.58594 56.3867 8.58594C57.3477 8.58594 58.2031 8.75 58.9531 9.07812C59.7031 9.39844 60.332 9.84766 60.8398 10.4258C61.3555 11.0039 61.7461 11.6875 62.0117 12.4766C62.2773 13.2578 62.4102 14.1133 62.4102 15.043V15.2891C62.4102 16.2109 62.2773 17.0664 62.0117 17.8555C61.7461 18.6367 61.3555 19.3203 60.8398 19.9062C60.332 20.4844 59.707 20.9336 58.9648 21.2539C58.2227 21.5742 57.3711 21.7344 56.4102 21.7344C55.4492 21.7344 54.5938 21.5742 53.8438 21.2539C53.1016 20.9336 52.4727 20.4844 51.957 19.9062C51.4492 19.3203 51.0625 18.6367 50.7969 17.8555C50.5312 17.0664 50.3984 16.2109 50.3984 15.2891ZM53.7734 15.043V15.2891C53.7734 15.8203 53.8203 16.3164 53.9141 16.7773C54.0078 17.2383 54.1562 17.6445 54.3594 17.9961C54.5703 18.3398 54.8438 18.6094 55.1797 18.8047C55.5156 19 55.9258 19.0977 56.4102 19.0977C56.8789 19.0977 57.2812 19 57.6172 18.8047C57.9531 18.6094 58.2227 18.3398 58.4258 17.9961C58.6289 17.6445 58.7773 17.2383 58.8711 16.7773C58.9727 16.3164 59.0234 15.8203 59.0234 15.2891V15.043C59.0234 14.5273 58.9727 14.043 58.8711 13.5898C58.7773 13.1289 58.625 12.7227 58.4141 12.3711C58.2109 12.0117 57.9414 11.7305 57.6055 11.5273C57.2695 11.3242 56.8633 11.2227 56.3867 11.2227C55.9102 11.2227 55.5039 11.3242 55.168 11.5273C54.8398 11.7305 54.5703 12.0117 54.3594 12.3711C54.1562 12.7227 54.0078 13.1289 53.9141 13.5898C53.8203 14.043 53.7734 14.5273 53.7734 15.043ZM67.8594 11.5859V21.5H64.4844V8.82031H67.6602L67.8594 11.5859ZM71.6797 8.73828L71.6211 11.8672C71.457 11.8438 71.2578 11.8242 71.0234 11.8086C70.7969 11.7852 70.5898 11.7734 70.4023 11.7734C69.9258 11.7734 69.5117 11.8359 69.1602 11.9609C68.8164 12.0781 68.5273 12.2539 68.293 12.4883C68.0664 12.7227 67.8945 13.0078 67.7773 13.3438C67.668 13.6797 67.6055 14.0625 67.5898 14.4922L66.9102 14.2812C66.9102 13.4609 66.9922 12.707 67.1562 12.0195C67.3203 11.3242 67.5586 10.7188 67.8711 10.2031C68.1914 9.6875 68.582 9.28906 69.043 9.00781C69.5039 8.72656 70.0312 8.58594 70.625 8.58594C70.8125 8.58594 71.0039 8.60156 71.1992 8.63281C71.3945 8.65625 71.5547 8.69141 71.6797 8.73828ZM76.6484 3.48828V21.5H73.2734V3.48828H76.6484ZM84.6406 8.82031L79.1328 15.1016L76.1797 18.0898L74.9492 15.6523L77.293 12.6758L80.5859 8.82031H84.6406ZM81.1367 21.5L77.3867 15.6406L79.7188 13.6016L85.0273 21.5H81.1367ZM95.375 11.5273V21.5H92V8.82031H95.1641L95.375 11.5273ZM94.8828 14.7148H93.9688C93.9688 13.7773 94.0898 12.9336 94.332 12.1836C94.5742 11.4258 94.9141 10.7812 95.3516 10.25C95.7891 9.71094 96.3086 9.30078 96.9102 9.01953C97.5195 8.73047 98.1992 8.58594 98.9492 8.58594C99.543 8.58594 100.086 8.67188 100.578 8.84375C101.07 9.01562 101.492 9.28906 101.844 9.66406C102.203 10.0391 102.477 10.5352 102.664 11.1523C102.859 11.7695 102.957 12.5234 102.957 13.4141V21.5H99.5586V13.4023C99.5586 12.8398 99.4805 12.4023 99.3242 12.0898C99.168 11.7773 98.9375 11.5586 98.6328 11.4336C98.3359 11.3008 97.9688 11.2344 97.5312 11.2344C97.0781 11.2344 96.6836 11.3242 96.3477 11.5039C96.0195 11.6836 95.7461 11.9336 95.5273 12.2539C95.3164 12.5664 95.1562 12.9336 95.0469 13.3555C94.9375 13.7773 94.8828 14.2305 94.8828 14.7148ZM118.355 15.418H114.008V12.6758H118.355C119.027 12.6758 119.574 12.5664 119.996 12.3477C120.418 12.1211 120.727 11.8086 120.922 11.4102C121.117 11.0117 121.215 10.5625 121.215 10.0625C121.215 9.55469 121.117 9.08203 120.922 8.64453C120.727 8.20703 120.418 7.85547 119.996 7.58984C119.574 7.32422 119.027 7.19141 118.355 7.19141H115.227V21.5H111.711V4.4375H118.355C119.691 4.4375 120.836 4.67969 121.789 5.16406C122.75 5.64063 123.484 6.30078 123.992 7.14453C124.5 7.98828 124.754 8.95312 124.754 10.0391C124.754 11.1406 124.5 12.0938 123.992 12.8984C123.484 13.7031 122.75 14.3242 121.789 14.7617C120.836 15.1992 119.691 15.418 118.355 15.418ZM130.344 11.5859V21.5H126.969V8.82031H130.145L130.344 11.5859ZM134.164 8.73828L134.105 11.8672C133.941 11.8438 133.742 11.8242 133.508 11.8086C133.281 11.7852 133.074 11.7734 132.887 11.7734C132.41 11.7734 131.996 11.8359 131.645 11.9609C131.301 12.0781 131.012 12.2539 130.777 12.4883C130.551 12.7227 130.379 13.0078 130.262 13.3438C130.152 13.6797 130.09 14.0625 130.074 14.4922L129.395 14.2812C129.395 13.4609 129.477 12.707 129.641 12.0195C129.805 11.3242 130.043 10.7188 130.355 10.2031C130.676 9.6875 131.066 9.28906 131.527 9.00781C131.988 8.72656 132.516 8.58594 133.109 8.58594C133.297 8.58594 133.488 8.60156 133.684 8.63281C133.879 8.65625 134.039 8.69141 134.164 8.73828ZM134.867 15.2891V15.043C134.867 14.1133 135 13.2578 135.266 12.4766C135.531 11.6875 135.918 11.0039 136.426 10.4258C136.934 9.84766 137.559 9.39844 138.301 9.07812C139.043 8.75 139.895 8.58594 140.855 8.58594C141.816 8.58594 142.672 8.75 143.422 9.07812C144.172 9.39844 144.801 9.84766 145.309 10.4258C145.824 11.0039 146.215 11.6875 146.48 12.4766C146.746 13.2578 146.879 14.1133 146.879 15.043V15.2891C146.879 16.2109 146.746 17.0664 146.48 17.8555C146.215 18.6367 145.824 19.3203 145.309 19.9062C144.801 20.4844 144.176 20.9336 143.434 21.2539C142.691 21.5742 141.84 21.7344 140.879 21.7344C139.918 21.7344 139.062 21.5742 138.312 21.2539C137.57 20.9336 136.941 20.4844 136.426 19.9062C135.918 19.3203 135.531 18.6367 135.266 17.8555C135 17.0664 134.867 16.2109 134.867 15.2891ZM138.242 15.043V15.2891C138.242 15.8203 138.289 16.3164 138.383 16.7773C138.477 17.2383 138.625 17.6445 138.828 17.9961C139.039 18.3398 139.312 18.6094 139.648 18.8047C139.984 19 140.395 19.0977 140.879 19.0977C141.348 19.0977 141.75 19 142.086 18.8047C142.422 18.6094 142.691 18.3398 142.895 17.9961C143.098 17.6445 143.246 17.2383 143.34 16.7773C143.441 16.3164 143.492 15.8203 143.492 15.2891V15.043C143.492 14.5273 143.441 14.043 143.34 13.5898C143.246 13.1289 143.094 12.7227 142.883 12.3711C142.68 12.0117 142.41 11.7305 142.074 11.5273C141.738 11.3242 141.332 11.2227 140.855 11.2227C140.379 11.2227 139.973 11.3242 139.637 11.5273C139.309 11.7305 139.039 12.0117 138.828 12.3711C138.625 12.7227 138.477 13.1289 138.383 13.5898C138.289 14.043 138.242 14.5273 138.242 15.043ZM156.98 8.82031H160.039V21.0781C160.039 22.2344 159.781 23.2148 159.266 24.0195C158.758 24.832 158.047 25.4453 157.133 25.8594C156.219 26.2812 155.156 26.4922 153.945 26.4922C153.414 26.4922 152.852 26.4219 152.258 26.2812C151.672 26.1406 151.109 25.9219 150.57 25.625C150.039 25.3281 149.594 24.9531 149.234 24.5L150.723 22.5078C151.113 22.9609 151.566 23.3125 152.082 23.5625C152.598 23.8203 153.168 23.9492 153.793 23.9492C154.402 23.9492 154.918 23.8359 155.34 23.6094C155.762 23.3906 156.086 23.0664 156.312 22.6367C156.539 22.2148 156.652 21.7031 156.652 21.1016V11.75L156.98 8.82031ZM148.449 15.3125V15.0664C148.449 14.0977 148.566 13.2188 148.801 12.4297C149.043 11.6328 149.383 10.9492 149.82 10.3789C150.266 9.80859 150.805 9.36719 151.438 9.05469C152.07 8.74219 152.785 8.58594 153.582 8.58594C154.426 8.58594 155.133 8.74219 155.703 9.05469C156.273 9.36719 156.742 9.8125 157.109 10.3906C157.477 10.9609 157.762 11.6367 157.965 12.418C158.176 13.1914 158.34 14.0391 158.457 14.9609V15.5C158.34 16.3828 158.164 17.2031 157.93 17.9609C157.695 18.7188 157.387 19.3828 157.004 19.9531C156.621 20.5156 156.145 20.9531 155.574 21.2656C155.012 21.5781 154.34 21.7344 153.559 21.7344C152.777 21.7344 152.07 21.5742 151.438 21.2539C150.812 20.9336 150.277 20.4844 149.832 19.9062C149.387 19.3281 149.043 18.6484 148.801 17.8672C148.566 17.0859 148.449 16.2344 148.449 15.3125ZM151.824 15.0664V15.3125C151.824 15.8359 151.875 16.3242 151.977 16.7773C152.078 17.2305 152.234 17.6328 152.445 17.9844C152.664 18.3281 152.934 18.5977 153.254 18.793C153.582 18.9805 153.969 19.0742 154.414 19.0742C155.031 19.0742 155.535 18.9453 155.926 18.6875C156.316 18.4219 156.609 18.0586 156.805 17.5977C157 17.1367 157.113 16.6055 157.145 16.0039V14.4688C157.129 13.9766 157.062 13.5352 156.945 13.1445C156.828 12.7461 156.664 12.4062 156.453 12.125C156.242 11.8438 155.969 11.625 155.633 11.4688C155.297 11.3125 154.898 11.2344 154.438 11.2344C153.992 11.2344 153.605 11.3359 153.277 11.5391C152.957 11.7344 152.688 12.0039 152.469 12.3477C152.258 12.6914 152.098 13.0977 151.988 13.5664C151.879 14.0273 151.824 14.5273 151.824 15.0664ZM166.039 11.5859V21.5H162.664V8.82031H165.84L166.039 11.5859ZM169.859 8.73828L169.801 11.8672C169.637 11.8438 169.438 11.8242 169.203 11.8086C168.977 11.7852 168.77 11.7734 168.582 11.7734C168.105 11.7734 167.691 11.8359 167.34 11.9609C166.996 12.0781 166.707 12.2539 166.473 12.4883C166.246 12.7227 166.074 13.0078 165.957 13.3438C165.848 13.6797 165.785 14.0625 165.77 14.4922L165.09 14.2812C165.09 13.4609 165.172 12.707 165.336 12.0195C165.5 11.3242 165.738 10.7188 166.051 10.2031C166.371 9.6875 166.762 9.28906 167.223 9.00781C167.684 8.72656 168.211 8.58594 168.805 8.58594C168.992 8.58594 169.184 8.60156 169.379 8.63281C169.574 8.65625 169.734 8.69141 169.859 8.73828ZM177.055 21.7344C176.07 21.7344 175.188 21.5781 174.406 21.2656C173.625 20.9453 172.961 20.5039 172.414 19.9414C171.875 19.3789 171.461 18.7266 171.172 17.9844C170.883 17.2344 170.738 16.4375 170.738 15.5938V15.125C170.738 14.1641 170.875 13.2852 171.148 12.4883C171.422 11.6914 171.812 11 172.32 10.4141C172.836 9.82812 173.461 9.37891 174.195 9.06641C174.93 8.74609 175.758 8.58594 176.68 8.58594C177.578 8.58594 178.375 8.73438 179.07 9.03125C179.766 9.32812 180.348 9.75 180.816 10.2969C181.293 10.8438 181.652 11.5 181.895 12.2656C182.137 13.0234 182.258 13.8672 182.258 14.7969V16.2031H172.18V13.9531H178.941V13.6953C178.941 13.2266 178.855 12.8086 178.684 12.4414C178.52 12.0664 178.27 11.7695 177.934 11.5508C177.598 11.332 177.168 11.2227 176.645 11.2227C176.199 11.2227 175.816 11.3203 175.496 11.5156C175.176 11.7109 174.914 11.9844 174.711 12.3359C174.516 12.6875 174.367 13.1016 174.266 13.5781C174.172 14.0469 174.125 14.5625 174.125 15.125V15.5938C174.125 16.1016 174.195 16.5703 174.336 17C174.484 17.4297 174.691 17.8008 174.957 18.1133C175.23 18.4258 175.559 18.668 175.941 18.8398C176.332 19.0117 176.773 19.0977 177.266 19.0977C177.875 19.0977 178.441 18.9805 178.965 18.7461C179.496 18.5039 179.953 18.1406 180.336 17.6562L181.977 19.4375C181.711 19.8203 181.348 20.1875 180.887 20.5391C180.434 20.8906 179.887 21.1797 179.246 21.4062C178.605 21.625 177.875 21.7344 177.055 21.7344ZM191.035 17.9961C191.035 17.7539 190.965 17.5352 190.824 17.3398C190.684 17.1445 190.422 16.9648 190.039 16.8008C189.664 16.6289 189.121 16.4727 188.41 16.332C187.77 16.1914 187.172 16.0156 186.617 15.8047C186.07 15.5859 185.594 15.3242 185.188 15.0195C184.789 14.7148 184.477 14.3555 184.25 13.9414C184.023 13.5195 183.91 13.0391 183.91 12.5C183.91 11.9688 184.023 11.4688 184.25 11C184.484 10.5312 184.816 10.1172 185.246 9.75781C185.684 9.39062 186.215 9.10547 186.84 8.90234C187.473 8.69141 188.184 8.58594 188.973 8.58594C190.074 8.58594 191.02 8.76172 191.809 9.11328C192.605 9.46484 193.215 9.94922 193.637 10.5664C194.066 11.1758 194.281 11.8711 194.281 12.6523H190.906C190.906 12.3242 190.836 12.0312 190.695 11.7734C190.562 11.5078 190.352 11.3008 190.062 11.1523C189.781 10.9961 189.414 10.918 188.961 10.918C188.586 10.918 188.262 10.9844 187.988 11.1172C187.715 11.2422 187.504 11.4141 187.355 11.6328C187.215 11.8438 187.145 12.0781 187.145 12.3359C187.145 12.5312 187.184 12.707 187.262 12.8633C187.348 13.0117 187.484 13.1484 187.672 13.2734C187.859 13.3984 188.102 13.5156 188.398 13.625C188.703 13.7266 189.078 13.8203 189.523 13.9062C190.438 14.0938 191.254 14.3398 191.973 14.6445C192.691 14.9414 193.262 15.3477 193.684 15.8633C194.105 16.3711 194.316 17.0391 194.316 17.8672C194.316 18.4297 194.191 18.9453 193.941 19.4141C193.691 19.8828 193.332 20.293 192.863 20.6445C192.395 20.9883 191.832 21.2578 191.176 21.4531C190.527 21.6406 189.797 21.7344 188.984 21.7344C187.805 21.7344 186.805 21.5234 185.984 21.1016C185.172 20.6797 184.555 20.1445 184.133 19.4961C183.719 18.8398 183.512 18.168 183.512 17.4805H186.711C186.727 17.9414 186.844 18.3125 187.062 18.5938C187.289 18.875 187.574 19.0781 187.918 19.2031C188.27 19.3281 188.648 19.3906 189.055 19.3906C189.492 19.3906 189.855 19.332 190.145 19.2148C190.434 19.0898 190.652 18.9258 190.801 18.7227C190.957 18.5117 191.035 18.2695 191.035 17.9961ZM203.363 17.9961C203.363 17.7539 203.293 17.5352 203.152 17.3398C203.012 17.1445 202.75 16.9648 202.367 16.8008C201.992 16.6289 201.449 16.4727 200.738 16.332C200.098 16.1914 199.5 16.0156 198.945 15.8047C198.398 15.5859 197.922 15.3242 197.516 15.0195C197.117 14.7148 196.805 14.3555 196.578 13.9414C196.352 13.5195 196.238 13.0391 196.238 12.5C196.238 11.9688 196.352 11.4688 196.578 11C196.812 10.5312 197.145 10.1172 197.574 9.75781C198.012 9.39062 198.543 9.10547 199.168 8.90234C199.801 8.69141 200.512 8.58594 201.301 8.58594C202.402 8.58594 203.348 8.76172 204.137 9.11328C204.934 9.46484 205.543 9.94922 205.965 10.5664C206.395 11.1758 206.609 11.8711 206.609 12.6523H203.234C203.234 12.3242 203.164 12.0312 203.023 11.7734C202.891 11.5078 202.68 11.3008 202.391 11.1523C202.109 10.9961 201.742 10.918 201.289 10.918C200.914 10.918 200.59 10.9844 200.316 11.1172C200.043 11.2422 199.832 11.4141 199.684 11.6328C199.543 11.8438 199.473 12.0781 199.473 12.3359C199.473 12.5312 199.512 12.707 199.59 12.8633C199.676 13.0117 199.812 13.1484 200 13.2734C200.188 13.3984 200.43 13.5156 200.727 13.625C201.031 13.7266 201.406 13.8203 201.852 13.9062C202.766 14.0938 203.582 14.3398 204.301 14.6445C205.02 14.9414 205.59 15.3477 206.012 15.8633C206.434 16.3711 206.645 17.0391 206.645 17.8672C206.645 18.4297 206.52 18.9453 206.27 19.4141C206.02 19.8828 205.66 20.293 205.191 20.6445C204.723 20.9883 204.16 21.2578 203.504 21.4531C202.855 21.6406 202.125 21.7344 201.312 21.7344C200.133 21.7344 199.133 21.5234 198.312 21.1016C197.5 20.6797 196.883 20.1445 196.461 19.4961C196.047 18.8398 195.84 18.168 195.84 17.4805H199.039C199.055 17.9414 199.172 18.3125 199.391 18.5938C199.617 18.875 199.902 19.0781 200.246 19.2031C200.598 19.3281 200.977 19.3906 201.383 19.3906C201.82 19.3906 202.184 19.332 202.473 19.2148C202.762 19.0898 202.98 18.9258 203.129 18.7227C203.285 18.5117 203.363 18.2695 203.363 17.9961Z" fill="#697077"/>
<path d="M138.127 31.9082V32.7871H134.775V31.9082H138.127ZM135.004 29.1602V35.5H133.92V29.1602H135.004ZM139.006 29.1602V35.5H137.916V29.1602H139.006ZM144.49 34.416V31.1523C144.49 30.9023 144.439 30.6855 144.338 30.502C144.24 30.3145 144.092 30.1699 143.893 30.0684C143.693 29.9668 143.447 29.916 143.154 29.916C142.881 29.916 142.641 29.9629 142.434 30.0566C142.23 30.1504 142.07 30.2734 141.953 30.4258C141.84 30.5781 141.783 30.7422 141.783 30.918H140.699C140.699 30.6914 140.758 30.4668 140.875 30.2441C140.992 30.0215 141.16 29.8203 141.379 29.6406C141.602 29.457 141.867 29.3125 142.176 29.207C142.488 29.0977 142.836 29.043 143.219 29.043C143.68 29.043 144.086 29.1211 144.438 29.2773C144.793 29.4336 145.07 29.6699 145.27 29.9863C145.473 30.2988 145.574 30.6914 145.574 31.1641V34.1172C145.574 34.3281 145.592 34.5527 145.627 34.791C145.666 35.0293 145.723 35.2344 145.797 35.4062V35.5H144.666C144.611 35.375 144.568 35.209 144.537 35.002C144.506 34.791 144.49 34.5957 144.49 34.416ZM144.678 31.6562L144.689 32.418H143.594C143.285 32.418 143.01 32.4434 142.768 32.4941C142.525 32.541 142.322 32.6133 142.158 32.7109C141.994 32.8086 141.869 32.9316 141.783 33.0801C141.697 33.2246 141.654 33.3945 141.654 33.5898C141.654 33.7891 141.699 33.9707 141.789 34.1348C141.879 34.2988 142.014 34.4297 142.193 34.5273C142.377 34.6211 142.602 34.668 142.867 34.668C143.199 34.668 143.492 34.5977 143.746 34.457C144 34.3164 144.201 34.1445 144.35 33.9414C144.502 33.7383 144.584 33.541 144.596 33.3496L145.059 33.8711C145.031 34.0352 144.957 34.2168 144.836 34.416C144.715 34.6152 144.553 34.8066 144.35 34.9902C144.15 35.1699 143.912 35.3203 143.635 35.4414C143.361 35.5586 143.053 35.6172 142.709 35.6172C142.279 35.6172 141.902 35.5332 141.578 35.3652C141.258 35.1973 141.008 34.9727 140.828 34.6914C140.652 34.4062 140.564 34.0879 140.564 33.7363C140.564 33.3965 140.631 33.0977 140.764 32.8398C140.896 32.5781 141.088 32.3613 141.338 32.1895C141.588 32.0137 141.889 31.8809 142.24 31.791C142.592 31.7012 142.984 31.6562 143.418 31.6562H144.678ZM148.451 33.7832L151.375 29.1602H152.465V35.5H151.375V30.877L148.451 35.5H147.373V29.1602H148.451V33.7832ZM150.783 26.8633H151.662C151.662 27.168 151.592 27.4395 151.451 27.6777C151.311 27.9121 151.109 28.0957 150.848 28.2285C150.586 28.3613 150.275 28.4277 149.916 28.4277C149.373 28.4277 148.943 28.2832 148.627 27.9941C148.314 27.7012 148.158 27.3242 148.158 26.8633H149.037C149.037 27.0938 149.104 27.2969 149.236 27.4727C149.369 27.6484 149.596 27.7363 149.916 27.7363C150.229 27.7363 150.451 27.6484 150.584 27.4727C150.717 27.2969 150.783 27.0938 150.783 26.8633ZM155.348 29.1602H156.432L156.338 31.5332C156.314 32.1348 156.246 32.6543 156.133 33.0918C156.02 33.5293 155.875 33.9023 155.699 34.2109C155.523 34.5156 155.326 34.7715 155.107 34.9785C154.893 35.1855 154.67 35.3594 154.439 35.5H153.9L153.93 34.6152L154.152 34.6094C154.281 34.457 154.406 34.3008 154.527 34.1406C154.648 33.9766 154.76 33.7832 154.861 33.5605C154.963 33.334 155.047 33.0586 155.113 32.7344C155.184 32.4062 155.229 32.0059 155.248 31.5332L155.348 29.1602ZM155.617 29.1602H159.432V35.5H158.348V30.1621H155.617V29.1602ZM153.654 34.6094H160.246V37.3691H159.162V35.5H154.738V37.3691H153.648L153.654 34.6094ZM164.078 35.6172C163.637 35.6172 163.236 35.543 162.877 35.3945C162.521 35.2422 162.215 35.0293 161.957 34.7559C161.703 34.4824 161.508 34.1582 161.371 33.7832C161.234 33.4082 161.166 32.998 161.166 32.5527V32.3066C161.166 31.791 161.242 31.332 161.395 30.9297C161.547 30.5234 161.754 30.1797 162.016 29.8984C162.277 29.6172 162.574 29.4043 162.906 29.2598C163.238 29.1152 163.582 29.043 163.938 29.043C164.391 29.043 164.781 29.1211 165.109 29.2773C165.441 29.4336 165.713 29.6523 165.924 29.9336C166.135 30.2109 166.291 30.5391 166.393 30.918C166.494 31.293 166.545 31.7031 166.545 32.1484V32.6348H161.811V31.75H165.461V31.668C165.445 31.3867 165.387 31.1133 165.285 30.8477C165.188 30.582 165.031 30.3633 164.816 30.1914C164.602 30.0195 164.309 29.9336 163.938 29.9336C163.691 29.9336 163.465 29.9863 163.258 30.0918C163.051 30.1934 162.873 30.3457 162.725 30.5488C162.576 30.752 162.461 31 162.379 31.293C162.297 31.5859 162.256 31.9238 162.256 32.3066V32.5527C162.256 32.8535 162.297 33.1367 162.379 33.4023C162.465 33.6641 162.588 33.8945 162.748 34.0938C162.912 34.293 163.109 34.4492 163.34 34.5625C163.574 34.6758 163.84 34.7324 164.137 34.7324C164.52 34.7324 164.844 34.6543 165.109 34.498C165.375 34.3418 165.607 34.1328 165.807 33.8711L166.463 34.3926C166.326 34.5996 166.152 34.7969 165.941 34.9844C165.73 35.1719 165.471 35.3242 165.162 35.4414C164.857 35.5586 164.496 35.6172 164.078 35.6172ZM170.324 29.1602V35.5H169.234V29.1602H170.324ZM172.451 29.1602V30.0391H167.148V29.1602H172.451ZM175.586 34.7266C175.844 34.7266 176.082 34.6738 176.301 34.5684C176.52 34.4629 176.699 34.3184 176.84 34.1348C176.98 33.9473 177.061 33.7344 177.08 33.4961H178.111C178.092 33.8711 177.965 34.2207 177.73 34.5449C177.5 34.8652 177.197 35.125 176.822 35.3242C176.447 35.5195 176.035 35.6172 175.586 35.6172C175.109 35.6172 174.693 35.5332 174.338 35.3652C173.986 35.1973 173.693 34.9668 173.459 34.6738C173.229 34.3809 173.055 34.0449 172.938 33.666C172.824 33.2832 172.768 32.8789 172.768 32.4531V32.207C172.768 31.7812 172.824 31.3789 172.938 31C173.055 30.6172 173.229 30.2793 173.459 29.9863C173.693 29.6934 173.986 29.4629 174.338 29.2949C174.693 29.127 175.109 29.043 175.586 29.043C176.082 29.043 176.516 29.1445 176.887 29.3477C177.258 29.5469 177.549 29.8203 177.76 30.168C177.975 30.5117 178.092 30.9023 178.111 31.3398H177.08C177.061 31.0781 176.986 30.8418 176.857 30.6309C176.732 30.4199 176.561 30.252 176.342 30.127C176.127 29.998 175.875 29.9336 175.586 29.9336C175.254 29.9336 174.975 30 174.748 30.1328C174.525 30.2617 174.348 30.4375 174.215 30.6602C174.086 30.8789 173.992 31.123 173.934 31.3926C173.879 31.6582 173.852 31.9297 173.852 32.207V32.4531C173.852 32.7305 173.879 33.0039 173.934 33.2734C173.988 33.543 174.08 33.7871 174.209 34.0059C174.342 34.2246 174.52 34.4004 174.742 34.5332C174.969 34.6621 175.25 34.7266 175.586 34.7266ZM180.613 32.4766H181.785L179.951 35.5H178.779L180.613 32.4766ZM181.521 29.1602H184.17V35.5H183.086V30.0391H181.521C181.213 30.0391 180.961 30.0918 180.766 30.1973C180.57 30.2988 180.428 30.4316 180.338 30.5957C180.248 30.7598 180.203 30.9297 180.203 31.1055C180.203 31.2773 180.244 31.4434 180.326 31.6035C180.408 31.7598 180.537 31.8887 180.713 31.9902C180.889 32.0918 181.115 32.1426 181.393 32.1426H183.379V33.0332H181.393C181.029 33.0332 180.707 32.9844 180.426 32.8867C180.145 32.7891 179.906 32.6543 179.711 32.4824C179.516 32.3066 179.367 32.1016 179.266 31.8672C179.164 31.6289 179.113 31.3711 179.113 31.0938C179.113 30.8164 179.166 30.5605 179.271 30.3262C179.381 30.0918 179.537 29.8867 179.74 29.7109C179.947 29.5352 180.199 29.4004 180.496 29.3066C180.797 29.209 181.139 29.1602 181.521 29.1602ZM191.869 32.7109H189.789L189.777 31.8438H191.477C191.812 31.8438 192.092 31.8105 192.314 31.7441C192.541 31.6777 192.711 31.5781 192.824 31.4453C192.938 31.3125 192.994 31.1484 192.994 30.9531C192.994 30.8008 192.961 30.668 192.895 30.5547C192.832 30.4375 192.736 30.3418 192.607 30.2676C192.479 30.1895 192.318 30.1328 192.127 30.0977C191.939 30.0586 191.719 30.0391 191.465 30.0391H190.076V35.5H188.992V29.1602H191.465C191.867 29.1602 192.229 29.1953 192.549 29.2656C192.873 29.3359 193.148 29.4434 193.375 29.5879C193.605 29.7285 193.781 29.9082 193.902 30.127C194.023 30.3457 194.084 30.6035 194.084 30.9004C194.084 31.0918 194.045 31.2734 193.967 31.4453C193.889 31.6172 193.773 31.7695 193.621 31.9023C193.469 32.0352 193.281 32.1445 193.059 32.2305C192.836 32.3125 192.58 32.3652 192.291 32.3887L191.869 32.7109ZM191.869 35.5H189.396L189.936 34.6211H191.869C192.17 34.6211 192.42 34.584 192.619 34.5098C192.818 34.4316 192.967 34.3223 193.064 34.1816C193.166 34.0371 193.217 33.8652 193.217 33.666C193.217 33.4668 193.166 33.2969 193.064 33.1562C192.967 33.0117 192.818 32.9023 192.619 32.8281C192.42 32.75 192.17 32.7109 191.869 32.7109H190.223L190.234 31.8438H192.291L192.684 32.1719C193.031 32.1992 193.326 32.2852 193.568 32.4297C193.811 32.5742 193.994 32.7578 194.119 32.9805C194.244 33.1992 194.307 33.4375 194.307 33.6953C194.307 33.9922 194.25 34.2539 194.137 34.4805C194.027 34.707 193.867 34.8965 193.656 35.0488C193.445 35.1973 193.189 35.3105 192.889 35.3887C192.588 35.4629 192.248 35.5 191.869 35.5ZM198.297 34.7266C198.555 34.7266 198.793 34.6738 199.012 34.5684C199.23 34.4629 199.41 34.3184 199.551 34.1348C199.691 33.9473 199.771 33.7344 199.791 33.4961H200.822C200.803 33.8711 200.676 34.2207 200.441 34.5449C200.211 34.8652 199.908 35.125 199.533 35.3242C199.158 35.5195 198.746 35.6172 198.297 35.6172C197.82 35.6172 197.404 35.5332 197.049 35.3652C196.697 35.1973 196.404 34.9668 196.17 34.6738C195.939 34.3809 195.766 34.0449 195.648 33.666C195.535 33.2832 195.479 32.8789 195.479 32.4531V32.207C195.479 31.7812 195.535 31.3789 195.648 31C195.766 30.6172 195.939 30.2793 196.17 29.9863C196.404 29.6934 196.697 29.4629 197.049 29.2949C197.404 29.127 197.82 29.043 198.297 29.043C198.793 29.043 199.227 29.1445 199.598 29.3477C199.969 29.5469 200.26 29.8203 200.471 30.168C200.686 30.5117 200.803 30.9023 200.822 31.3398H199.791C199.771 31.0781 199.697 30.8418 199.568 30.6309C199.443 30.4199 199.271 30.252 199.053 30.127C198.838 29.998 198.586 29.9336 198.297 29.9336C197.965 29.9336 197.686 30 197.459 30.1328C197.236 30.2617 197.059 30.4375 196.926 30.6602C196.797 30.8789 196.703 31.123 196.645 31.3926C196.59 31.6582 196.562 31.9297 196.562 32.207V32.4531C196.562 32.7305 196.59 33.0039 196.645 33.2734C196.699 33.543 196.791 33.7871 196.92 34.0059C197.053 34.2246 197.23 34.4004 197.453 34.5332C197.68 34.6621 197.961 34.7266 198.297 34.7266ZM204.672 35.6172C204.23 35.6172 203.83 35.543 203.471 35.3945C203.115 35.2422 202.809 35.0293 202.551 34.7559C202.297 34.4824 202.102 34.1582 201.965 33.7832C201.828 33.4082 201.76 32.998 201.76 32.5527V32.3066C201.76 31.791 201.836 31.332 201.988 30.9297C202.141 30.5234 202.348 30.1797 202.609 29.8984C202.871 29.6172 203.168 29.4043 203.5 29.2598C203.832 29.1152 204.176 29.043 204.531 29.043C204.984 29.043 205.375 29.1211 205.703 29.2773C206.035 29.4336 206.307 29.6523 206.518 29.9336C206.729 30.2109 206.885 30.5391 206.986 30.918C207.088 31.293 207.139 31.7031 207.139 32.1484V32.6348H202.404V31.75H206.055V31.668C206.039 31.3867 205.98 31.1133 205.879 30.8477C205.781 30.582 205.625 30.3633 205.41 30.1914C205.195 30.0195 204.902 29.9336 204.531 29.9336C204.285 29.9336 204.059 29.9863 203.852 30.0918C203.645 30.1934 203.467 30.3457 203.318 30.5488C203.17 30.752 203.055 31 202.973 31.293C202.891 31.5859 202.85 31.9238 202.85 32.3066V32.5527C202.85 32.8535 202.891 33.1367 202.973 33.4023C203.059 33.6641 203.182 33.8945 203.342 34.0938C203.506 34.293 203.703 34.4492 203.934 34.5625C204.168 34.6758 204.434 34.7324 204.73 34.7324C205.113 34.7324 205.438 34.6543 205.703 34.498C205.969 34.3418 206.201 34.1328 206.4 33.8711L207.057 34.3926C206.92 34.5996 206.746 34.7969 206.535 34.9844C206.324 35.1719 206.064 35.3242 205.756 35.4414C205.451 35.5586 205.09 35.6172 204.672 35.6172ZM202.639 27.4668C202.639 27.291 202.693 27.1426 202.803 27.0215C202.912 26.9004 203.07 26.8398 203.277 26.8398C203.488 26.8398 203.648 26.9004 203.758 27.0215C203.867 27.1426 203.922 27.291 203.922 27.4668C203.922 27.6348 203.867 27.7793 203.758 27.9004C203.648 28.0176 203.488 28.0762 203.277 28.0762C203.07 28.0762 202.912 28.0176 202.803 27.9004C202.693 27.7793 202.639 27.6348 202.639 27.4668ZM205.164 27.4785C205.164 27.3027 205.217 27.1543 205.322 27.0332C205.432 26.9121 205.592 26.8516 205.803 26.8516C206.01 26.8516 206.168 26.9121 206.277 27.0332C206.391 27.1543 206.447 27.3027 206.447 27.4785C206.447 27.6465 206.391 27.791 206.277 27.9121C206.168 28.0293 206.01 28.0879 205.803 28.0879C205.592 28.0879 205.432 28.0293 205.322 27.9121C205.217 27.791 205.164 27.6465 205.164 27.4785Z" fill="#697077"/>
</svg>
